<?xml version="1.0"?>
<svg width="841.89" height="595.27" xmlns="http://www.w3.org/2000/svg" xmlns:svg="http://www.w3.org/2000/svg" version="1.1">
 <defs>
  <g id="svg_1"/>
 </defs>
 <g class="layer">
  <title>Layer 1</title>
  <g id="surface1">
   <!--   original logo file -->
   <path d="m151.07,293.23c0.26,-1.05 0.38,-2.02 0.38,-2.91l0,-7.14l-20.63,0l0,2.99l15.86,0l0,4.28c0,0.91 -0.03,1.81 -0.11,2.7c-0.09,0.89 -0.26,1.67 -0.54,2.35l-18.35,0l0,2.98l10.92,0l0,4.67l-8.54,0l0,2.98l17.4,0l0,9.33l4.77,0l0,-12.31l-8.85,0l0,-4.67l13.54,0l0,-2.98l-6.81,0c0.38,-0.47 0.7,-1.22 0.96,-2.27" fill="rgb(255%,255%,255%)" fill-rule="nonzero" id="svg_60"/>
   <path d="m184.45,293.23c0.26,-1.05 0.39,-2.02 0.39,-2.91l0,-7.14l-20.64,0l0,2.99l15.87,0l0,4.28c0,0.91 -0.03,1.81 -0.12,2.7c-0.08,0.89 -0.26,1.67 -0.53,2.35l-18.35,0l0,2.98l10.92,0l0,4.67l-8.54,0l0,2.98l17.39,0l0,9.33l4.77,0l0,-12.31l-8.84,0l0,-4.67l13.54,0l0,-2.98l-6.81,0c0.38,-0.47 0.7,-1.22 0.95,-2.27" fill="rgb(255%,255%,255%)" fill-rule="nonzero" id="svg_61"/>
   <path d="m273.12,296.16l-11.01,0l0,-5.01l11.01,0l0,5.01zm-11.96,2.89l12.91,0c1.18,0 2.12,-0.33 2.78,-0.89c0.67,-0.57 1.04,-1.3 1.04,-2.55l0,-12.34l-4.77,0l0,4.9l-11.01,0l0,-4.9l-4.77,0l0,12.34c0,1.25 0.37,1.98 1.04,2.55c0.65,0.56 1.6,0.89 2.78,0.89" fill="rgb(255%,255%,255%)" fill-rule="nonzero" id="svg_62"/>
   <path d="m199.82,299.14l16.15,0l0,-2.98l-15.22,0l0,-3.68l14.7,0l0,-2.98l-14.7,0l0,-3.33l15.22,0l0,-2.99l-19.99,0l0,12.43c0,1.05 0.34,1.9 1.04,2.55c0.69,0.65 1.63,0.98 2.8,0.98" fill="rgb(255%,255%,255%)" fill-rule="nonzero" id="svg_63"/>
   <path d="m302.29,289.91c0,0.94 -0.05,1.85 -0.15,2.72c-0.09,0.87 -0.28,1.66 -0.58,2.33l4.03,0c0.38,-0.39 0.72,-1.11 1.02,-2.17c0.3,-1.06 0.45,-2.07 0.45,-3.04l0,-6.51l-20.62,0l0,3.02l15.85,0" fill="rgb(255%,255%,255%)" fill-rule="nonzero" id="svg_64"/>
   <path d="m295.79,290.77l-4.77,0l0,6.2l-8.09,0l0,2.97l27.93,0l0,-2.97l-15.07,0" fill="rgb(255%,255%,255%)" fill-rule="nonzero" id="svg_65"/>
   <path d="m208.86,301.78l-5.04,0l0,5.48l-10.68,0l0,2.98l26.68,0l0,-2.98l-10.96,0" fill="rgb(255%,255%,255%)" fill-rule="nonzero" id="svg_66"/>
   <path d="m269.99,301.78l-4.76,0l0,5.48l-10.68,0l0,2.98l26.13,0l0,-2.98l-10.69,0" fill="rgb(255%,255%,255%)" fill-rule="nonzero" id="svg_67"/>
   <path d="m339.68,290.75l0,-7.77l-4.77,0l0,32.48l4.77,0l0,-21.73l4.93,0l0,-2.98" fill="rgb(255%,255%,255%)" fill-rule="nonzero" id="svg_68"/>
   <path d="m244.36,288.68l-5.2,0l0,2.98l5.2,0l0,8.13l4.78,0l0,-16.7l-4.78,0" fill="rgb(255%,255%,255%)" fill-rule="nonzero" id="svg_69"/>
   <path d="m231.77,294.88c2.85,0.58 6.64,2.51 8.58,4.22l1.97,-2.44c-1.41,-1.51 -6.06,-4.18 -8.61,-4.97c0.39,-1.06 0.63,-2.21 0.63,-3.48l0,-1.84l5.53,0l0,-2.99l-15.86,0l0,2.99l5.54,0l0,1.84c0,2.2 -0.88,6.91 -6.7,8.04l0,2.93c0.72,0 1.39,-0.15 2.07,-0.32c2.51,-0.61 5.04,-1.96 6.85,-3.98" fill="rgb(255%,255%,255%)" fill-rule="nonzero" id="svg_70"/>
   <path d="m120.09,282.98l-4.77,0l0,20.38l4.77,0l0,-9.87l4.5,0l0,-3.02l-4.5,0" fill="rgb(255%,255%,255%)" fill-rule="nonzero" id="svg_71"/>
   <path d="m104.87,304.4l-4.77,0l0,7.52c0,1.1 0.36,1.96 1.08,2.59c0.73,0.63 1.63,0.95 2.72,0.95l17.37,0l0,-2.99l-16.4,0" fill="rgb(255%,255%,255%)" fill-rule="nonzero" id="svg_72"/>
   <path d="m239.94,313.29c-2.38,0 -4.32,-2.06 -4.32,-4.59c0,-2.55 1.94,-4.6 4.32,-4.6c2.38,0 4.32,2.05 4.32,4.6c0,2.53 -1.94,4.59 -4.32,4.59m6.44,-9.91c-1.78,-1.48 -3.93,-2.22 -6.46,-2.22c-2.5,0 -4.64,0.74 -6.41,2.22c-1.78,1.48 -2.65,3.26 -2.65,5.36c0,2.08 0.87,3.86 2.65,5.33c1.77,1.46 3.91,2.19 6.41,2.19c2.53,0 4.68,-0.73 6.46,-2.19c1.76,-1.47 2.65,-3.25 2.65,-5.33c0,-2.1 -0.89,-3.88 -2.65,-5.36" fill="rgb(255%,255%,255%)" fill-rule="nonzero" id="svg_73"/>
   <path d="m296.77,313.29c-2.39,0 -4.32,-2.06 -4.32,-4.59c0,-2.55 1.93,-4.6 4.32,-4.6c2.38,0 4.31,2.05 4.31,4.6c0,2.53 -1.93,4.59 -4.31,4.59m6.43,-9.91c-1.77,-1.48 -3.92,-2.22 -6.45,-2.22c-2.51,0 -4.64,0.74 -6.41,2.22c-1.77,1.48 -2.66,3.26 -2.66,5.36c0,2.08 0.89,3.86 2.66,5.33c1.77,1.46 3.9,2.19 6.41,2.19c2.53,0 4.68,-0.73 6.45,-2.19c1.77,-1.47 2.66,-3.25 2.66,-5.33c0,-2.1 -0.89,-3.88 -2.66,-5.36" fill="rgb(255%,255%,255%)" fill-rule="nonzero" id="svg_74"/>
   <path d="m98.18,293.16c0,-2.49 1.89,-4.51 4.23,-4.51c2.33,0 4.23,2.02 4.23,4.51c0,2.48 -1.9,4.5 -4.23,4.5c-2.34,0 -4.23,-2.02 -4.23,-4.5m10.53,5.26c1.74,-1.43 2.6,-3.17 2.6,-5.22c0,-1.91 -0.76,-3.56 -2.26,-4.94l2.63,0l0,-2.98l-6.98,0l0,-2.35l-4.77,0l0,2.35l-6.99,0l0,2.98l2.83,0c-1.51,1.38 -2.27,3.03 -2.27,4.94c0,2.05 0.87,3.79 2.61,5.22c1.73,1.44 3.82,2.15 6.28,2.15c2.48,0 4.59,-0.71 6.32,-2.15" fill="rgb(255%,255%,255%)" fill-rule="nonzero" id="svg_75"/>
   <path d="m325.33,293.89c0.32,-0.93 0.51,-1.98 0.51,-3.19l0,-7.4l-4.95,0l0,6.44c0,3.82 -1.39,7.53 -6.7,8.71l0,3.24c1.71,-0.13 4.85,-1.18 6.45,-2.28c0.67,-0.47 1.68,-1.15 2.64,-2.16c2.69,1.07 5.25,2.86 7.14,4.85l2.34,-2.48c-1.01,-1.83 -4.89,-4.6 -7.43,-5.73" fill="rgb(255%,255%,255%)" fill-rule="nonzero" id="svg_76"/>
   <path d="m69.92,298.96c-0.52,-0.57 -1.04,-1.07 -1.56,-1.53c0.35,-0.35 0.69,-0.71 1.04,-1.11l13.42,-16.3l-11.48,0l-7.71,9.39c-2.11,2.54 -3.39,3.63 -5.68,3.63c-2.3,0 -3.58,-1.09 -5.68,-3.63l-7.72,-9.39l-11.48,-0.01l13.43,16.31c0.36,0.42 0.72,0.79 1.08,1.15c-0.5,0.45 -1.01,0.94 -1.51,1.49l-6.85,7.93l-13.56,0c-7.81,0 -12.66,-4.68 -12.66,-12.2l0,-14.23l-10.09,0l0,14.23c0,16.76 12.04,21.07 22.3,21.07l16.6,0c1.28,0 1.98,-0.28 2.65,-1.08l7.62,-8.84c2.19,-2.52 3.53,-3.6 5.92,-3.6c2.39,0 3.72,1.08 5.91,3.6l8.52,9.91l11.98,0" fill="rgb(255%,255%,255%)" fill-rule="nonzero" id="svg_77"/>
   <!--
<path style=" stroke:none;fill-rule:nonzero;fill:rgb(255%,255%,255%);fill-opacity:1;" d="M 348.066406 516.226563 C 348.328125 515.183594 348.453125 514.214844 348.453125 513.324219 L 348.453125 506.183594 L 327.816406 506.183594 L 327.816406 509.167969 L 343.683594 509.167969 L 343.683594 513.445313 C 343.683594 514.359375 343.648438 515.261719 343.566406 516.148438 C 343.480469 517.035156 343.308594 517.820313 343.03125 518.5 L 324.679688 518.5 L 324.679688 521.484375 L 335.601563 521.484375 L 335.601563 526.152344 L 327.0625 526.152344 L 327.0625 529.132813 L 344.457031 529.132813 L 344.457031 538.464844 L 349.226563 538.464844 L 349.226563 526.152344 L 340.382813 526.152344 L 340.382813 521.484375 L 353.917969 521.484375 L 353.917969 518.5 L 347.109375 518.5 C 347.488281 518.03125 347.808594 517.277344 348.066406 516.226563 "/>
<path style=" stroke:none;fill-rule:nonzero;fill:rgb(255%,255%,255%);fill-opacity:1;" d="M 381.453125 516.226563 C 381.710938 515.183594 381.84375 514.214844 381.84375 513.324219 L 381.84375 506.183594 L 361.203125 506.183594 L 361.203125 509.167969 L 377.074219 509.167969 L 377.074219 513.445313 C 377.074219 514.359375 377.035156 515.261719 376.949219 516.148438 C 376.871094 517.035156 376.691406 517.820313 376.421875 518.5 L 358.070313 518.5 L 358.070313 521.484375 L 368.988281 521.484375 L 368.988281 526.152344 L 360.445313 526.152344 L 360.445313 529.132813 L 377.84375 529.132813 L 377.84375 538.464844 L 382.613281 538.464844 L 382.613281 526.152344 L 373.769531 526.152344 L 373.769531 521.484375 L 387.308594 521.484375 L 387.308594 518.5 L 380.496094 518.5 C 380.875 518.03125 381.195313 517.277344 381.453125 516.226563 "/>
<path style=" stroke:none;fill-rule:nonzero;fill:rgb(255%,255%,255%);fill-opacity:1;" d="M 470.121094 519.15625 L 459.105469 519.15625 L 459.105469 514.148438 L 470.121094 514.148438 Z M 458.15625 522.046875 L 471.070313 522.046875 C 472.246094 522.046875 473.191406 521.71875 473.851563 521.160156 C 474.519531 520.585938 474.890625 519.855469 474.890625 518.609375 L 474.890625 506.273438 L 470.121094 506.273438 L 470.121094 511.171875 L 459.105469 511.171875 L 459.105469 506.273438 L 454.339844 506.273438 L 454.339844 518.609375 C 454.339844 519.855469 454.710938 520.585938 455.378906 521.160156 C 456.03125 521.71875 456.980469 522.046875 458.15625 522.046875 "/>
<path style=" stroke:none;fill-rule:nonzero;fill:rgb(255%,255%,255%);fill-opacity:1;" d="M 396.820313 522.140625 L 412.96875 522.140625 L 412.96875 519.160156 L 397.75 519.160156 L 397.75 515.484375 L 412.445313 515.484375 L 412.445313 512.503906 L 397.75 512.503906 L 397.75 509.167969 L 412.96875 509.167969 L 412.96875 506.183594 L 392.980469 506.183594 L 392.980469 518.609375 C 392.980469 519.65625 393.324219 520.507813 394.023438 521.160156 C 394.714844 521.8125 395.652344 522.140625 396.820313 522.140625 "/>
<path style=" stroke:none;fill-rule:nonzero;fill:rgb(255%,255%,255%);fill-opacity:1;" d="M 499.289063 512.90625 C 499.289063 513.847656 499.238281 514.757813 499.144531 515.628906 C 499.054688 516.503906 498.855469 517.289063 498.558594 517.964844 L 502.589844 517.964844 C 502.972656 517.574219 503.3125 516.847656 503.613281 515.789063 C 503.90625 514.730469 504.058594 513.71875 504.058594 512.75 L 504.058594 506.238281 L 483.4375 506.238281 L 483.4375 509.257813 L 499.289063 509.257813 "/>
<path style=" stroke:none;fill-rule:nonzero;fill:rgb(255%,255%,255%);fill-opacity:1;" d="M 492.789063 513.765625 L 488.023438 513.765625 L 488.023438 519.96875 L 479.929688 519.96875 L 479.929688 522.941406 L 507.863281 522.941406 L 507.863281 519.96875 L 492.789063 519.96875 "/>
<path style=" stroke:none;fill-rule:nonzero;fill:rgb(255%,255%,255%);fill-opacity:1;" d="M 405.863281 524.777344 L 400.816406 524.777344 L 400.816406 530.261719 L 390.140625 530.261719 L 390.140625 533.242188 L 416.816406 533.242188 L 416.816406 530.261719 L 405.863281 530.261719 "/>
<path style=" stroke:none;fill-rule:nonzero;fill:rgb(255%,255%,255%);fill-opacity:1;" d="M 466.992188 524.777344 L 462.226563 524.777344 L 462.226563 530.261719 L 451.550781 530.261719 L 451.550781 533.242188 L 477.675781 533.242188 L 477.675781 530.261719 L 466.992188 530.261719 "/>
<path style=" stroke:none;fill-rule:nonzero;fill:rgb(255%,255%,255%);fill-opacity:1;" d="M 536.679688 513.75 L 536.679688 505.980469 L 531.910156 505.980469 L 531.910156 538.457031 L 536.679688 538.457031 L 536.679688 516.730469 L 541.605469 516.730469 L 541.605469 513.75 "/>
<path style=" stroke:none;fill-rule:nonzero;fill:rgb(255%,255%,255%);fill-opacity:1;" d="M 441.363281 511.679688 L 436.160156 511.679688 L 436.160156 514.664063 L 441.363281 514.664063 L 441.363281 522.789063 L 446.136719 522.789063 L 446.136719 506.085938 L 441.363281 506.085938 "/>
<path style=" stroke:none;fill-rule:nonzero;fill:rgb(255%,255%,255%);fill-opacity:1;" d="M 428.769531 517.878906 C 431.617188 518.457031 435.40625 520.390625 437.347656 522.097656 L 439.316406 519.65625 C 437.910156 518.152344 433.261719 515.484375 430.710938 514.691406 C 431.101563 513.632813 431.335938 512.484375 431.335938 511.214844 L 431.335938 509.367188 L 436.871094 509.367188 L 436.871094 506.382813 L 421.011719 506.382813 L 421.011719 509.367188 L 426.550781 509.367188 L 426.550781 511.214844 C 426.550781 513.414063 425.671875 518.117188 419.847656 519.246094 L 419.847656 522.175781 C 420.566406 522.175781 421.238281 522.03125 421.921875 521.863281 C 424.433594 521.246094 426.964844 519.902344 428.769531 517.878906 "/>
<path style=" stroke:none;fill-rule:nonzero;fill:rgb(255%,255%,255%);fill-opacity:1;" d="M 317.085938 505.980469 L 312.320313 505.980469 L 312.320313 526.359375 L 317.085938 526.359375 L 317.085938 516.488281 L 321.585938 516.488281 L 321.585938 513.472656 L 317.085938 513.472656 "/>
<path style=" stroke:none;fill-rule:nonzero;fill:rgb(255%,255%,255%);fill-opacity:1;" d="M 301.871094 527.398438 L 297.101563 527.398438 L 297.101563 534.921875 C 297.101563 536.019531 297.464844 536.878906 298.183594 537.511719 C 298.90625 538.136719 299.808594 538.457031 300.898438 538.457031 L 318.273438 538.457031 L 318.273438 535.472656 L 301.871094 535.472656 "/>
<path style=" stroke:none;fill-rule:nonzero;fill:rgb(255%,255%,255%);fill-opacity:1;" d="M 436.941406 536.289063 C 434.558594 536.289063 432.621094 534.230469 432.621094 531.695313 C 432.621094 529.152344 434.558594 527.097656 436.941406 527.097656 C 439.324219 527.097656 441.257813 529.152344 441.257813 531.695313 C 441.257813 534.230469 439.324219 536.289063 436.941406 536.289063 M 443.375 526.378906 C 441.601563 524.902344 439.453125 524.160156 436.921875 524.160156 C 434.417969 524.160156 432.28125 524.902344 430.511719 526.378906 C 428.734375 527.859375 427.855469 529.640625 427.855469 531.738281 C 427.855469 533.824219 428.734375 535.601563 430.511719 537.066406 C 432.28125 538.53125 434.417969 539.261719 436.921875 539.261719 C 439.453125 539.261719 441.601563 538.53125 443.375 537.066406 C 445.144531 535.601563 446.027344 533.824219 446.027344 531.738281 C 446.027344 529.640625 445.144531 527.859375 443.375 526.378906 "/>
<path style=" stroke:none;fill-rule:nonzero;fill:rgb(255%,255%,255%);fill-opacity:1;" d="M 493.765625 536.289063 C 491.382813 536.289063 489.453125 534.230469 489.453125 531.695313 C 489.453125 529.152344 491.382813 527.097656 493.765625 527.097656 C 496.152344 527.097656 498.078125 529.152344 498.078125 531.695313 C 498.078125 534.230469 496.152344 536.289063 493.765625 536.289063 M 500.195313 526.378906 C 498.433594 524.902344 496.28125 524.160156 493.746094 524.160156 C 491.242188 524.160156 489.105469 524.902344 487.335938 526.378906 C 485.566406 527.859375 484.683594 529.640625 484.683594 531.738281 C 484.683594 533.824219 485.566406 535.601563 487.335938 537.066406 C 489.105469 538.53125 491.242188 539.261719 493.746094 539.261719 C 496.28125 539.261719 498.433594 538.53125 500.195313 537.066406 C 501.96875 535.601563 502.855469 533.824219 502.855469 531.738281 C 502.855469 529.640625 501.96875 527.859375 500.195313 526.378906 "/>
<path style=" stroke:none;fill-rule:nonzero;fill:rgb(255%,255%,255%);fill-opacity:1;" d="M 295.179688 516.15625 C 295.179688 513.667969 297.070313 511.648438 299.40625 511.648438 C 301.742188 511.648438 303.636719 513.667969 303.636719 516.15625 C 303.636719 518.640625 301.742188 520.660156 299.40625 520.660156 C 297.070313 520.660156 295.179688 518.640625 295.179688 516.15625 M 305.710938 521.421875 C 307.445313 519.992188 308.3125 518.246094 308.3125 516.195313 C 308.3125 514.289063 307.554688 512.644531 306.050781 511.261719 L 308.675781 511.261719 L 308.675781 508.277344 L 301.695313 508.277344 L 301.695313 505.933594 L 296.925781 505.933594 L 296.925781 508.277344 L 289.941406 508.277344 L 289.941406 511.261719 L 292.765625 511.261719 C 291.261719 512.644531 290.503906 514.289063 290.503906 516.195313 C 290.503906 518.246094 291.371094 519.992188 293.105469 521.421875 C 294.839844 522.859375 296.929688 523.574219 299.386719 523.574219 C 301.867188 523.574219 303.976563 522.859375 305.710938 521.421875 "/>
<path style=" stroke:none;fill-rule:nonzero;fill:rgb(255%,255%,255%);fill-opacity:1;" d="M 522.328125 516.890625 C 522.648438 515.964844 522.84375 514.914063 522.84375 513.695313 L 522.84375 506.296875 L 517.886719 506.296875 L 517.886719 512.742188 C 517.886719 516.558594 516.5 520.265625 511.1875 521.453125 L 511.1875 524.691406 C 512.902344 524.5625 516.042969 523.507813 517.636719 522.410156 C 518.3125 521.941406 519.324219 521.257813 520.277344 520.25 C 522.96875 521.324219 525.527344 523.109375 527.421875 525.097656 L 529.761719 522.617188 C 528.75 520.792969 524.867188 518.023438 522.328125 516.890625 "/>
<path style=" stroke:none;fill-rule:nonzero;fill:rgb(255%,255%,255%);fill-opacity:1;" d="M 266.921875 521.964844 C 266.402344 521.394531 265.882813 520.886719 265.355469 520.425781 C 265.707031 520.082031 266.054688 519.71875 266.398438 519.324219 L 279.824219 503.015625 L 268.339844 503.015625 L 260.625 512.410156 C 258.519531 514.945313 257.242188 516.035156 254.945313 516.035156 C 252.648438 516.035156 251.371094 514.945313 249.269531 512.410156 L 241.550781 503.015625 L 230.066406 503.011719 L 243.496094 519.324219 C 243.855469 519.738281 244.21875 520.113281 244.582031 520.46875 C 244.078125 520.917969 243.574219 521.414063 243.074219 521.964844 L 236.222656 529.890625 L 222.660156 529.890625 C 214.851563 529.890625 210.003906 525.214844 210.003906 517.691406 L 210.003906 503.464844 L 199.90625 503.464844 L 199.90625 517.691406 C 199.90625 534.445313 211.949219 538.761719 222.207031 538.761719 L 238.8125 538.761719 C 240.09375 538.761719 240.792969 538.484375 241.460938 537.683594 L 249.082031 528.839844 C 251.273438 526.320313 252.605469 525.238281 254.996094 525.238281 C 257.386719 525.238281 258.71875 526.320313 260.910156 528.839844 L 269.433594 538.753906 L 281.414063 538.753906 "/>
-->
  </g>
 </g>
</svg>