<?xml version="1.0"?>
<svg width="841.89" height="595.27" xmlns="http://www.w3.org/2000/svg" xmlns:svg="http://www.w3.org/2000/svg" version="1.1">
 <defs>
  <g id="svg_1"/>
 </defs>
 <g class="layer">
  <title>Layer 1</title>
  <g id="surface1" transform="rotate(0.295666 420.26 299.135)">
   <!--   original logo file -->
   <path d="m364.79,278.34c0.64,-4.45 0.93,-8.57 0.93,-12.34l0,-30.27l-50.43,0l0,12.68l38.77,0l0,18.15c0,3.86 -0.07,7.67 -0.27,11.45c-0.22,3.77 -0.64,7.08 -1.32,9.96l-44.86,0l0,12.64l26.69,0l0,19.8l-20.88,0l0,12.64l42.54,0l0,39.56l11.66,0l0,-52.2l-21.63,0l0,-19.8l33.1,0l0,-12.64l-16.65,0c0.93,-1.99 1.71,-5.17 2.35,-9.63" fill="rgb(0%,23.529053%,40.783691%)" fill-rule="nonzero" id="svg_60"/>
   <path d="m446.39,278.34c0.64,-4.45 0.95,-8.57 0.95,-12.34l0,-30.27l-50.46,0l0,12.68l38.8,0l0,18.15c0,3.86 -0.07,7.67 -0.29,11.45c-0.2,3.77 -0.64,7.08 -1.3,9.96l-44.86,0l0,12.64l26.69,0l0,19.8l-20.88,0l0,12.64l42.51,0l0,39.56l11.66,0l0,-52.2l-21.61,0l0,-19.8l33.1,0l0,-12.64l-16.65,0c0.93,-1.99 1.71,-5.17 2.32,-9.63" fill="rgb(0%,23.529053%,40.783691%)" fill-rule="nonzero" id="svg_61"/>
   <path d="m663.15,290.76l-26.91,0l0,-21.24l26.91,0l0,21.24zm-29.24,12.25l31.56,0c2.88,0 5.18,-1.4 6.8,-3.77c1.64,-2.42 2.54,-5.51 2.54,-10.81l0,-52.32l-11.66,0l0,20.78l-26.91,0l0,-20.78l-11.66,0l0,52.32c0,5.3 0.9,8.4 2.54,10.81c1.59,2.37 3.91,3.77 6.8,3.77" fill="rgb(0%,23.529053%,40.783691%)" fill-rule="nonzero" id="svg_62"/>
   <path d="m483.97,303.4l39.48,0l0,-12.64l-37.21,0l0,-15.6l35.94,0l0,-12.64l-35.94,0l0,-14.12l37.21,0l0,-12.68l-48.87,0l0,52.7c0,4.45 0.83,8.06 2.54,10.81c1.69,2.76 3.98,4.16 6.84,4.16" fill="rgb(0%,23.529053%,40.783691%)" fill-rule="nonzero" id="svg_63"/>
   <path d="m734.46,264.26c0,3.99 -0.12,7.84 -0.37,11.53c-0.22,3.69 -0.68,7.04 -1.42,9.88l9.85,0c0.93,-1.65 1.76,-4.71 2.49,-9.2c0.73,-4.49 1.1,-8.78 1.1,-12.89l0,-27.6l-50.41,0l0,12.81l38.75,0" fill="rgb(0%,23.529053%,40.783691%)" fill-rule="nonzero" id="svg_64"/>
   <path d="m718.57,267.91l-11.66,0l0,26.29l-19.78,0l0,12.59l68.28,0l0,-12.59l-36.84,0" fill="rgb(0%,23.529053%,40.783691%)" fill-rule="nonzero" id="svg_65"/>
   <path d="m506.06,314.59l-12.32,0l0,23.24l-26.11,0l0,12.64l65.22,0l0,-12.64l-26.79,0" fill="rgb(0%,23.529053%,40.783691%)" fill-rule="nonzero" id="svg_66"/>
   <path d="m655.5,314.59l-11.64,0l0,23.24l-26.11,0l0,12.64l63.88,0l0,-12.64l-26.13,0" fill="rgb(0%,23.529053%,40.783691%)" fill-rule="nonzero" id="svg_67"/>
   <path d="m825.86,267.82l0,-32.95l-11.66,0l0,137.72l11.66,0l0,-92.14l12.05,0l0,-12.64" fill="rgb(0%,23.529053%,40.783691%)" fill-rule="nonzero" id="svg_68"/>
   <path d="m592.85,259.04l-12.71,0l0,12.64l12.71,0l0,34.47l11.69,0l0,-70.81l-11.69,0" fill="rgb(0%,23.529053%,40.783691%)" fill-rule="nonzero" id="svg_69"/>
   <path d="m562.07,285.33c6.97,2.46 16.23,10.64 20.97,17.89l4.82,-10.35c-3.45,-6.4 -14.81,-17.72 -21.05,-21.07c0.95,-4.49 1.54,-9.37 1.54,-14.76l0,-7.8l13.52,0l0,-12.68l-38.77,0l0,12.68l13.54,0l0,7.8c0,9.33 -2.15,29.3 -16.38,34.09l0,12.42c1.76,0 3.4,-0.64 5.06,-1.36c6.14,-2.59 12.32,-8.31 16.75,-16.88" fill="rgb(0%,23.529053%,40.783691%)" fill-rule="nonzero" id="svg_70"/>
   <path d="m289.06,234.88l-11.66,0l0,86.41l11.66,0l0,-41.85l11,0l0,-12.81l-11,0" fill="rgb(0%,23.529053%,40.783691%)" fill-rule="nonzero" id="svg_71"/>
   <path d="m251.85,325.7l-11.66,0l0,31.89c0,4.66 0.88,8.31 2.64,10.98c1.78,2.67 3.98,4.03 6.65,4.03l42.46,0l0,-12.68l-40.09,0" fill="rgb(0%,23.529053%,40.783691%)" fill-rule="nonzero" id="svg_72"/>
   <path d="m582.04,363.39c-5.82,0 -10.56,-8.73 -10.56,-19.46c0,-10.81 4.74,-19.5 10.56,-19.5c5.82,0 10.56,8.69 10.56,19.5c0,10.73 -4.74,19.46 -10.56,19.46m15.74,-42.02c-4.35,-6.28 -9.61,-9.41 -15.79,-9.41c-6.11,0 -11.34,3.14 -15.67,9.41c-4.35,6.28 -6.48,13.82 -6.48,22.73c0,8.82 2.13,16.37 6.48,22.6c4.33,6.19 9.56,9.29 15.67,9.29c6.18,0 11.44,-3.1 15.79,-9.29c4.3,-6.23 6.48,-13.78 6.48,-22.6c0,-8.9 -2.18,-16.45 -6.48,-22.73" fill="rgb(0%,23.529053%,40.783691%)" fill-rule="nonzero" id="svg_73"/>
   <path d="m720.97,363.39c-5.84,0 -10.56,-8.73 -10.56,-19.46c0,-10.81 4.72,-19.5 10.56,-19.5c5.82,0 10.54,8.69 10.54,19.5c0,10.73 -4.72,19.46 -10.54,19.46m15.72,-42.02c-4.33,-6.28 -9.58,-9.41 -15.77,-9.41c-6.14,0 -11.34,3.14 -15.67,9.41c-4.33,6.28 -6.5,13.82 -6.5,22.73c0,8.82 2.18,16.37 6.5,22.6c4.33,6.19 9.53,9.29 15.67,9.29c6.18,0 11.44,-3.1 15.77,-9.29c4.33,-6.23 6.5,-13.78 6.5,-22.6c0,-8.9 -2.18,-16.45 -6.5,-22.73" fill="rgb(0%,23.529053%,40.783691%)" fill-rule="nonzero" id="svg_74"/>
   <path d="m235.5,278.04c0,-10.56 4.62,-19.12 10.34,-19.12c5.7,0 10.34,8.57 10.34,19.12c0,10.52 -4.64,19.08 -10.34,19.08c-5.72,0 -10.34,-8.57 -10.34,-19.08m25.74,22.3c4.25,-6.06 6.36,-13.44 6.36,-22.13c0,-8.1 -1.86,-15.09 -5.52,-20.95l6.43,0l0,-12.64l-17.06,0l0,-9.96l-11.66,0l0,9.96l-17.09,0l0,12.64l6.92,0c-3.69,5.85 -5.55,12.85 -5.55,20.95c0,8.69 2.13,16.07 6.38,22.13c4.23,6.11 9.34,9.12 15.35,9.12c6.06,0 11.22,-3.01 15.45,-9.12" fill="rgb(0%,23.529053%,40.783691%)" fill-rule="nonzero" id="svg_75"/>
   <path d="m790.78,281.14c0.78,-3.94 1.25,-8.4 1.25,-13.53l0,-31.38l-12.1,0l0,27.31c0,16.2 -3.4,31.93 -16.38,36.93l0,13.74c4.18,-0.55 11.86,-5 15.77,-9.67c1.64,-1.99 4.11,-4.88 6.45,-9.16c6.58,4.54 12.83,12.13 17.45,20.56l5.72,-10.52c-2.47,-7.76 -11.95,-19.5 -18.16,-24.3" fill="rgb(0%,23.529053%,40.783691%)" fill-rule="nonzero" id="svg_76"/>
   <path d="m166.41,302.63c-1.27,-2.42 -2.54,-4.54 -3.81,-6.49c0.86,-1.48 1.69,-3.01 2.54,-4.71l32.81,-69.11l-28.06,0l-18.85,39.81c-5.16,10.77 -8.29,15.39 -13.89,15.39c-5.62,0 -8.75,-4.62 -13.89,-15.39l-18.87,-39.81l-28.06,-0.04l32.83,69.16c0.88,1.78 1.76,3.35 2.64,4.88c-1.22,1.91 -2.47,3.99 -3.69,6.32l-16.75,33.62l-33.15,0c-19.09,0 -30.95,-19.84 -30.95,-51.73l0,-60.34l-24.67,0l0,60.34c0,71.06 29.43,89.34 54.51,89.34l40.58,0c3.13,0 4.84,-1.19 6.48,-4.58l18.63,-37.48c5.35,-10.69 8.63,-15.26 14.47,-15.26c5.84,0 9.09,4.58 14.45,15.26l20.83,42.02l29.29,0" fill="rgb(0%,23.529053%,40.783691%)" fill-rule="nonzero" id="svg_77"/>
   <!--
<path style=" stroke:none;fill-rule:nonzero;fill:rgb(255%,255%,255%);fill-opacity:1;" d="M 348.066406 516.226563 C 348.328125 515.183594 348.453125 514.214844 348.453125 513.324219 L 348.453125 506.183594 L 327.816406 506.183594 L 327.816406 509.167969 L 343.683594 509.167969 L 343.683594 513.445313 C 343.683594 514.359375 343.648438 515.261719 343.566406 516.148438 C 343.480469 517.035156 343.308594 517.820313 343.03125 518.5 L 324.679688 518.5 L 324.679688 521.484375 L 335.601563 521.484375 L 335.601563 526.152344 L 327.0625 526.152344 L 327.0625 529.132813 L 344.457031 529.132813 L 344.457031 538.464844 L 349.226563 538.464844 L 349.226563 526.152344 L 340.382813 526.152344 L 340.382813 521.484375 L 353.917969 521.484375 L 353.917969 518.5 L 347.109375 518.5 C 347.488281 518.03125 347.808594 517.277344 348.066406 516.226563 "/>
<path style=" stroke:none;fill-rule:nonzero;fill:rgb(255%,255%,255%);fill-opacity:1;" d="M 381.453125 516.226563 C 381.710938 515.183594 381.84375 514.214844 381.84375 513.324219 L 381.84375 506.183594 L 361.203125 506.183594 L 361.203125 509.167969 L 377.074219 509.167969 L 377.074219 513.445313 C 377.074219 514.359375 377.035156 515.261719 376.949219 516.148438 C 376.871094 517.035156 376.691406 517.820313 376.421875 518.5 L 358.070313 518.5 L 358.070313 521.484375 L 368.988281 521.484375 L 368.988281 526.152344 L 360.445313 526.152344 L 360.445313 529.132813 L 377.84375 529.132813 L 377.84375 538.464844 L 382.613281 538.464844 L 382.613281 526.152344 L 373.769531 526.152344 L 373.769531 521.484375 L 387.308594 521.484375 L 387.308594 518.5 L 380.496094 518.5 C 380.875 518.03125 381.195313 517.277344 381.453125 516.226563 "/>
<path style=" stroke:none;fill-rule:nonzero;fill:rgb(255%,255%,255%);fill-opacity:1;" d="M 470.121094 519.15625 L 459.105469 519.15625 L 459.105469 514.148438 L 470.121094 514.148438 Z M 458.15625 522.046875 L 471.070313 522.046875 C 472.246094 522.046875 473.191406 521.71875 473.851563 521.160156 C 474.519531 520.585938 474.890625 519.855469 474.890625 518.609375 L 474.890625 506.273438 L 470.121094 506.273438 L 470.121094 511.171875 L 459.105469 511.171875 L 459.105469 506.273438 L 454.339844 506.273438 L 454.339844 518.609375 C 454.339844 519.855469 454.710938 520.585938 455.378906 521.160156 C 456.03125 521.71875 456.980469 522.046875 458.15625 522.046875 "/>
<path style=" stroke:none;fill-rule:nonzero;fill:rgb(255%,255%,255%);fill-opacity:1;" d="M 396.820313 522.140625 L 412.96875 522.140625 L 412.96875 519.160156 L 397.75 519.160156 L 397.75 515.484375 L 412.445313 515.484375 L 412.445313 512.503906 L 397.75 512.503906 L 397.75 509.167969 L 412.96875 509.167969 L 412.96875 506.183594 L 392.980469 506.183594 L 392.980469 518.609375 C 392.980469 519.65625 393.324219 520.507813 394.023438 521.160156 C 394.714844 521.8125 395.652344 522.140625 396.820313 522.140625 "/>
<path style=" stroke:none;fill-rule:nonzero;fill:rgb(255%,255%,255%);fill-opacity:1;" d="M 499.289063 512.90625 C 499.289063 513.847656 499.238281 514.757813 499.144531 515.628906 C 499.054688 516.503906 498.855469 517.289063 498.558594 517.964844 L 502.589844 517.964844 C 502.972656 517.574219 503.3125 516.847656 503.613281 515.789063 C 503.90625 514.730469 504.058594 513.71875 504.058594 512.75 L 504.058594 506.238281 L 483.4375 506.238281 L 483.4375 509.257813 L 499.289063 509.257813 "/>
<path style=" stroke:none;fill-rule:nonzero;fill:rgb(255%,255%,255%);fill-opacity:1;" d="M 492.789063 513.765625 L 488.023438 513.765625 L 488.023438 519.96875 L 479.929688 519.96875 L 479.929688 522.941406 L 507.863281 522.941406 L 507.863281 519.96875 L 492.789063 519.96875 "/>
<path style=" stroke:none;fill-rule:nonzero;fill:rgb(255%,255%,255%);fill-opacity:1;" d="M 405.863281 524.777344 L 400.816406 524.777344 L 400.816406 530.261719 L 390.140625 530.261719 L 390.140625 533.242188 L 416.816406 533.242188 L 416.816406 530.261719 L 405.863281 530.261719 "/>
<path style=" stroke:none;fill-rule:nonzero;fill:rgb(255%,255%,255%);fill-opacity:1;" d="M 466.992188 524.777344 L 462.226563 524.777344 L 462.226563 530.261719 L 451.550781 530.261719 L 451.550781 533.242188 L 477.675781 533.242188 L 477.675781 530.261719 L 466.992188 530.261719 "/>
<path style=" stroke:none;fill-rule:nonzero;fill:rgb(255%,255%,255%);fill-opacity:1;" d="M 536.679688 513.75 L 536.679688 505.980469 L 531.910156 505.980469 L 531.910156 538.457031 L 536.679688 538.457031 L 536.679688 516.730469 L 541.605469 516.730469 L 541.605469 513.75 "/>
<path style=" stroke:none;fill-rule:nonzero;fill:rgb(255%,255%,255%);fill-opacity:1;" d="M 441.363281 511.679688 L 436.160156 511.679688 L 436.160156 514.664063 L 441.363281 514.664063 L 441.363281 522.789063 L 446.136719 522.789063 L 446.136719 506.085938 L 441.363281 506.085938 "/>
<path style=" stroke:none;fill-rule:nonzero;fill:rgb(255%,255%,255%);fill-opacity:1;" d="M 428.769531 517.878906 C 431.617188 518.457031 435.40625 520.390625 437.347656 522.097656 L 439.316406 519.65625 C 437.910156 518.152344 433.261719 515.484375 430.710938 514.691406 C 431.101563 513.632813 431.335938 512.484375 431.335938 511.214844 L 431.335938 509.367188 L 436.871094 509.367188 L 436.871094 506.382813 L 421.011719 506.382813 L 421.011719 509.367188 L 426.550781 509.367188 L 426.550781 511.214844 C 426.550781 513.414063 425.671875 518.117188 419.847656 519.246094 L 419.847656 522.175781 C 420.566406 522.175781 421.238281 522.03125 421.921875 521.863281 C 424.433594 521.246094 426.964844 519.902344 428.769531 517.878906 "/>
<path style=" stroke:none;fill-rule:nonzero;fill:rgb(255%,255%,255%);fill-opacity:1;" d="M 317.085938 505.980469 L 312.320313 505.980469 L 312.320313 526.359375 L 317.085938 526.359375 L 317.085938 516.488281 L 321.585938 516.488281 L 321.585938 513.472656 L 317.085938 513.472656 "/>
<path style=" stroke:none;fill-rule:nonzero;fill:rgb(255%,255%,255%);fill-opacity:1;" d="M 301.871094 527.398438 L 297.101563 527.398438 L 297.101563 534.921875 C 297.101563 536.019531 297.464844 536.878906 298.183594 537.511719 C 298.90625 538.136719 299.808594 538.457031 300.898438 538.457031 L 318.273438 538.457031 L 318.273438 535.472656 L 301.871094 535.472656 "/>
<path style=" stroke:none;fill-rule:nonzero;fill:rgb(255%,255%,255%);fill-opacity:1;" d="M 436.941406 536.289063 C 434.558594 536.289063 432.621094 534.230469 432.621094 531.695313 C 432.621094 529.152344 434.558594 527.097656 436.941406 527.097656 C 439.324219 527.097656 441.257813 529.152344 441.257813 531.695313 C 441.257813 534.230469 439.324219 536.289063 436.941406 536.289063 M 443.375 526.378906 C 441.601563 524.902344 439.453125 524.160156 436.921875 524.160156 C 434.417969 524.160156 432.28125 524.902344 430.511719 526.378906 C 428.734375 527.859375 427.855469 529.640625 427.855469 531.738281 C 427.855469 533.824219 428.734375 535.601563 430.511719 537.066406 C 432.28125 538.53125 434.417969 539.261719 436.921875 539.261719 C 439.453125 539.261719 441.601563 538.53125 443.375 537.066406 C 445.144531 535.601563 446.027344 533.824219 446.027344 531.738281 C 446.027344 529.640625 445.144531 527.859375 443.375 526.378906 "/>
<path style=" stroke:none;fill-rule:nonzero;fill:rgb(255%,255%,255%);fill-opacity:1;" d="M 493.765625 536.289063 C 491.382813 536.289063 489.453125 534.230469 489.453125 531.695313 C 489.453125 529.152344 491.382813 527.097656 493.765625 527.097656 C 496.152344 527.097656 498.078125 529.152344 498.078125 531.695313 C 498.078125 534.230469 496.152344 536.289063 493.765625 536.289063 M 500.195313 526.378906 C 498.433594 524.902344 496.28125 524.160156 493.746094 524.160156 C 491.242188 524.160156 489.105469 524.902344 487.335938 526.378906 C 485.566406 527.859375 484.683594 529.640625 484.683594 531.738281 C 484.683594 533.824219 485.566406 535.601563 487.335938 537.066406 C 489.105469 538.53125 491.242188 539.261719 493.746094 539.261719 C 496.28125 539.261719 498.433594 538.53125 500.195313 537.066406 C 501.96875 535.601563 502.855469 533.824219 502.855469 531.738281 C 502.855469 529.640625 501.96875 527.859375 500.195313 526.378906 "/>
<path style=" stroke:none;fill-rule:nonzero;fill:rgb(255%,255%,255%);fill-opacity:1;" d="M 295.179688 516.15625 C 295.179688 513.667969 297.070313 511.648438 299.40625 511.648438 C 301.742188 511.648438 303.636719 513.667969 303.636719 516.15625 C 303.636719 518.640625 301.742188 520.660156 299.40625 520.660156 C 297.070313 520.660156 295.179688 518.640625 295.179688 516.15625 M 305.710938 521.421875 C 307.445313 519.992188 308.3125 518.246094 308.3125 516.195313 C 308.3125 514.289063 307.554688 512.644531 306.050781 511.261719 L 308.675781 511.261719 L 308.675781 508.277344 L 301.695313 508.277344 L 301.695313 505.933594 L 296.925781 505.933594 L 296.925781 508.277344 L 289.941406 508.277344 L 289.941406 511.261719 L 292.765625 511.261719 C 291.261719 512.644531 290.503906 514.289063 290.503906 516.195313 C 290.503906 518.246094 291.371094 519.992188 293.105469 521.421875 C 294.839844 522.859375 296.929688 523.574219 299.386719 523.574219 C 301.867188 523.574219 303.976563 522.859375 305.710938 521.421875 "/>
<path style=" stroke:none;fill-rule:nonzero;fill:rgb(255%,255%,255%);fill-opacity:1;" d="M 522.328125 516.890625 C 522.648438 515.964844 522.84375 514.914063 522.84375 513.695313 L 522.84375 506.296875 L 517.886719 506.296875 L 517.886719 512.742188 C 517.886719 516.558594 516.5 520.265625 511.1875 521.453125 L 511.1875 524.691406 C 512.902344 524.5625 516.042969 523.507813 517.636719 522.410156 C 518.3125 521.941406 519.324219 521.257813 520.277344 520.25 C 522.96875 521.324219 525.527344 523.109375 527.421875 525.097656 L 529.761719 522.617188 C 528.75 520.792969 524.867188 518.023438 522.328125 516.890625 "/>
<path style=" stroke:none;fill-rule:nonzero;fill:rgb(255%,255%,255%);fill-opacity:1;" d="M 266.921875 521.964844 C 266.402344 521.394531 265.882813 520.886719 265.355469 520.425781 C 265.707031 520.082031 266.054688 519.71875 266.398438 519.324219 L 279.824219 503.015625 L 268.339844 503.015625 L 260.625 512.410156 C 258.519531 514.945313 257.242188 516.035156 254.945313 516.035156 C 252.648438 516.035156 251.371094 514.945313 249.269531 512.410156 L 241.550781 503.015625 L 230.066406 503.011719 L 243.496094 519.324219 C 243.855469 519.738281 244.21875 520.113281 244.582031 520.46875 C 244.078125 520.917969 243.574219 521.414063 243.074219 521.964844 L 236.222656 529.890625 L 222.660156 529.890625 C 214.851563 529.890625 210.003906 525.214844 210.003906 517.691406 L 210.003906 503.464844 L 199.90625 503.464844 L 199.90625 517.691406 C 199.90625 534.445313 211.949219 538.761719 222.207031 538.761719 L 238.8125 538.761719 C 240.09375 538.761719 240.792969 538.484375 241.460938 537.683594 L 249.082031 528.839844 C 251.273438 526.320313 252.605469 525.238281 254.996094 525.238281 C 257.386719 525.238281 258.71875 526.320313 260.910156 528.839844 L 269.433594 538.753906 L 281.414063 538.753906 "/>
-->
  </g>
 </g>
</svg>